PathFileType	4	(X/Y/Z)	C:\Users\Basilio\Documents\Thesis Gigler\squatting_fais\c3dfiles\044\SLS_back_pre1\markers_experimental.trc
DataRate	CameraRate	NumFrames	NumMarkers	Units	OrigDataRate	OrigDataStartFrame	OrigNumFrames
200.000000	200.000000	4	68	mm	200.000000	648	1728
Frame#	Time	FHD			LBHD			RBHD			C7			T10			CLAV			LRAD			LRFIN			RSHO			RUPA1			RMUPA			RDUPA			RLEP			RMEP			RUL			LASI			RASI			USACR			LSACR			RSACR			LTHI1			LTHI2			LTHI3			LTHI4			LLFC			LMFC			LTIB1			LTIB2			LTIB3			LTIB4			LLMAL			LMMAL			LHEE			LMT1			LMT2			LMT5			RTHI			RTHI2			RTHI3			RTHI4			RLFC			RMFC			RTIB1			RTIB2			RTIB3			RTIB4			RLMAL			RMMAL			RHEE			RMT1			RMT2			RMT5			RUFIN			LSHO			LUUPA			LMUPA			LDUPA			LLEP			LMEP			LUL			*60			*61			*62			*63			*64			*65			*66			*67			
		X1	Y1	Z1	X2	Y2	Z2	X3	Y3	Z3	X4	Y4	Z4	X5	Y5	Z5	X6	Y6	Z6	X7	Y7	Z7	X8	Y8	Z8	X9	Y9	Z9	X10	Y10	Z10	X11	Y11	Z11	X12	Y12	Z12	X13	Y13	Z13	X14	Y14	Z14	X15	Y15	Z15	X16	Y16	Z16	X17	Y17	Z17	X18	Y18	Z18	X19	Y19	Z19	X20	Y20	Z20	X21	Y21	Z21	X22	Y22	Z22	X23	Y23	Z23	X24	Y24	Z24	X25	Y25	Z25	X26	Y26	Z26	X27	Y27	Z27	X28	Y28	Z28	X29	Y29	Z29	X30	Y30	Z30	X31	Y31	Z31	X32	Y32	Z32	X33	Y33	Z33	X34	Y34	Z34	X35	Y35	Z35	X36	Y36	Z36	X37	Y37	Z37	X38	Y38	Z38	X39	Y39	Z39	X40	Y40	Z40	X41	Y41	Z41	X42	Y42	Z42	X43	Y43	Z43	X44	Y44	Z44	X45	Y45	Z45	X46	Y46	Z46	X47	Y47	Z47	X48	Y48	Z48	X49	Y49	Z49	X50	Y50	Z50	X51	Y51	Z51	X52	Y52	Z52	X53	Y53	Z53	X54	Y54	Z54	X55	Y55	Z55	X56	Y56	Z56	X57	Y57	Z57	X58	Y58	Z58	X59	Y59	Z59	X60	Y60	Z60	X61	Y61	Z61	X62	Y62	Z62	X63	Y63	Z63	X64	Y64	Z64	X65	Y65	Z65	X66	Y66	Z66	X67	Y67	Z67	X68	Y68	Z68	

649	3.24	-129.2044830322266	1778.610717773438	-1077.942993164063	-269.7083129882813	1748.592163085938	-1141.674438476563	-300.4899291992188	1742.745361328125	-978.3958740234377	-338.3071594238282	1562.771362304688	-1058.776123046875	-363.4090881347657	1263.154296875	-1027.593627929688	-198.8973693847657	1519.144897460938	-1057.964965820313	nan	nan	nan	283.6588134765626	1516.559448242188	-1085.344970703125	-256.3845520019532	1570.469604492188	-898.1072387695315	-112.3372955322266	1531.083251953125	-787.044616699219	-77.76537322998048	1542.578125	-822.2130126953127	-43.55344009399415	1526.82470703125	-775.911071777344	19.7039966583252	1525.167114257813	-782.8237304687502	11.46171379089356	1441.505126953125	-789.5595703125002	256.7900085449219	1507.132568359375	-937.7688598632815	-216.0796813964844	1046.38232421875	-1114.457275390625	-206.7675323486329	1045.174560546875	-896.476745605469	-371.0107421875001	1121.047119140625	-1002.024291992188	-381.9915466308594	1087.933349609375	-1026.308227539063	-376.3403930664063	1093.32666015625	-969.443786621094	-304.9355468750001	809.8071289062502	-1171.444458007813	-265.3877258300782	734.6171264648439	-1169.45068359375	-216.8519439697266	741.0947265625001	-1167.359741210938	-285.6487731933594	681.7782592773439	-1149.514038085938	-256.3146362304688	527.0415649414064	-1127.000854492188	-243.1227264404297	530.5750732421876	-1005.323425292969	-240.2147369384766	355.4533996582032	-1038.251220703125	-272.6311645507813	305.7192687988282	-1102.972534179688	-240.2122650146485	304.4757995605469	-1067.600341796875	-262.8526000976563	231.7152709960938	-1029.860107421875	-327.1625366210938	117.3621902465821	-1063.315185546875	-303.6373596191407	132.560043334961	-981.3813476562502	-388.6806030273439	98.66572570800784	-1010.305236816406	-181.533447265625	60.32676315307619	-988.9376220703127	-180.4738311767578	57.82790374755861	-1034.751831054688	-217.7914276123047	41.45547103881837	-1080.933227539063	-303.3360290527344	789.5853271484377	-786.517028808594	-256.5716247558594	739.8708496093751	-776.2740478515627	-225.7832794189454	743.1715087890626	-784.4727783203127	-276.4543457031251	657.4891357421876	-777.2303466796877	-293.6077880859376	568.8953857421876	-776.4946899414065	-291.9541320800782	544.4533081054689	-890.735778808594	-373.3455200195313	462.7292480468751	-790.315124511719	-472.929901123047	502.4939575195314	-766.2634277343751	-458.601531982422	459.0724182128907	-770.7515258789065	-496.1040649414064	421.8282165527345	-793.9161376953127	-666.3293457031251	409.3017578125001	-796.3538818359377	-636.0700683593751	383.7582397460938	-874.437927246094	-712.1370849609376	437.9760131835939	-860.2932128906252	-639.2705078125001	238.9213562011719	-840.0504150390627	-646.3765869140626	237.0680847167969	-803.3117675781252	-691.9716796875001	268.1920776367188	-766.6876831054689	255.6885681152344	1488.688232421875	-1056.292846679688	-247.2309722900391	1563.994018554688	-1209.244262695313	-101.4390258789063	1516.053466796875	-1327.914672851563	-65.11582946777345	1527.373168945313	-1294.18798828125	-31.48984718322755	1508.768432617188	-1344.074340820313	28.82083702087403	1503.678100585938	-1341.217895507813	14.56766414642334	1422.944946289063	-1324.85400390625	269.7246704101563	1499.705810546875	-1189.5712890625	nan	nan	nan	nan	nan	nan	nan	nan	nan	nan	nan	nan	nan	nan	nan	nan	nan	nan	nan	nan	nan	nan	nan	nan	
650	3.245	-128.8474884033203	1778.63623046875	-1078.109741210938	-269.5593566894532	1748.369506835938	-1141.903686523438	-300.5461730957032	1742.293823242188	-978.2503662109377	-338.1440734863282	1562.725708007813	-1058.91943359375	-363.5626220703126	1263.151611328125	-1027.5556640625	-198.7016754150391	1518.942260742188	-1058.173217773438	nan	nan	nan	283.7280273437501	1515.839111328125	-1085.320922851563	-256.3731689453126	1570.315795898438	-898.221130371094	-112.3980865478516	1530.921630859375	-787.1625976562502	-77.7017059326172	1542.396240234375	-822.2498168945315	-43.43284606933594	1526.5146484375	-776.0000610351565	19.73993110656739	1524.976318359375	-782.9505615234377	11.39120101928711	1441.162353515625	-789.6368408203127	256.8513183593751	1506.337646484375	-937.609558105469	-216.0552673339844	1046.581665039063	-1114.274658203125	-207.0643005371094	1045.091918945313	-896.4141235351565	-371.4098510742188	1120.932373046875	-1001.940673828125	-382.3031616210938	1087.78125	-1026.22705078125	-376.6692504882813	1093.306884765625	-969.395446777344	-304.9710998535157	809.6394653320315	-1171.3876953125	-265.3128051757813	734.2938842773439	-1169.668090820313	-216.872543334961	741.0339965820314	-1167.43994140625	-285.5170593261719	681.6325683593751	-1149.628295898438	-255.8580017089844	526.9024658203126	-1127.121948242188	-242.7707519531251	530.4441528320314	-1005.397888183594	-239.9333038330079	355.1156921386719	-1038.250122070313	-272.4005432128907	305.6047363281251	-1102.983276367188	-240.0594177246094	304.2156982421876	-1067.493041992188	-262.7466125488282	231.6917877197266	-1029.8017578125	-327.1776123046876	117.3656539916992	-1063.259033203125	-303.6031799316407	132.5443725585938	-981.3267211914065	-388.6921691894532	98.69995117187503	-1010.251525878906	-181.6134643554688	60.36965560913087	-988.980651855469	-180.1743469238282	58.4064178466797	-1034.37841796875	-217.7165679931641	41.42576217651368	-1080.878051757813	-303.6154785156251	789.512145996094	-786.5911254882815	-256.9112243652344	739.5739746093751	-776.363464355469	-226.1704101562501	742.8658447265626	-784.3359375000002	-276.8306884765626	656.9608764648439	-776.797790527344	-294.1528930664063	568.6428222656251	-776.5374145507815	-292.4785766601563	544.3585815429689	-890.743347167969	-373.9524536132813	462.3937072753907	-790.032409667969	-473.5148010253907	502.1924438476564	-766.1107788085939	-458.8696899414064	458.8647460937501	-770.8189697265627	-496.6538696289064	421.3356933593751	-793.912536621094	-666.7247924804689	408.7724914550782	-796.3712158203127	-636.4158325195314	383.2762451171876	-874.4874267578127	-712.6042480468751	437.6613159179689	-860.337341308594	-639.4013671875001	238.7208251953126	-840.418151855469	-646.3775024414064	236.7038116455079	-803.607360839844	-692.1232299804689	267.7846679687501	-766.6708374023439	255.9619903564454	1487.956909179688	-1056.313232421875	-247.1872100830079	1563.624633789063	-1209.405395507813	-101.4591293334961	1515.731567382813	-1327.936279296875	-65.05205535888673	1527.070068359375	-1294.314086914063	-31.65266036987305	1508.46923828125	-1344.118286132813	28.9618034362793	1503.281982421875	-1341.35498046875	14.49581241607666	1422.595825195313	-1324.9462890625	269.8760681152344	1499.056518554688	-1189.628662109375	nan	nan	nan	nan	nan	nan	nan	nan	nan	nan	nan	nan	nan	nan	nan	nan	nan	nan	nan	nan	nan	nan	nan	nan	
651	3.25	-128.5645599365235	1778.395629882813	-1078.27685546875	-269.2973937988282	1748.167724609375	-1142.11962890625	-300.3379516601563	1741.981323242188	-978.4497680664065	-337.8403930664063	1562.088012695313	-1058.785766601563	-363.7464294433594	1263.009155273438	-1027.525146484375	-198.6690673828126	1518.7119140625	-1058.269287109375	nan	nan	nan	283.8050537109376	1515.294799804688	-1085.524291992188	-256.2391662597657	1570.167846679688	-898.364685058594	-112.4290924072266	1530.869262695313	-787.3492431640627	-77.55367279052736	1542.15966796875	-822.3689575195315	-43.39661407470704	1526.363403320313	-776.0223388671877	19.83423805236817	1524.733276367188	-783.081481933594	11.37076854705811	1441.066162109375	-789.6942138671877	256.9799499511719	1506.006103515625	-937.9006347656252	-215.0192413330079	1046.922729492188	-1115.482299804688	-207.5572509765626	1044.7646484375	-896.3988037109377	-371.6779785156251	1120.821899414063	-1001.896240234375	-382.6155700683594	1087.591796875	-1026.097534179688	-376.9479064941407	1093.217041015625	-969.3359375000002	-305.0611877441407	809.4313964843752	-1171.484130859375	-265.3067016601563	734.1293945312501	-1169.646118164063	-216.6094665527344	740.7341918945314	-1167.440673828125	-285.4073791503907	681.4957885742189	-1149.6650390625	-255.5047912597657	526.6508178710939	-1127.225463867188	-240.8851318359376	530.0917358398439	-1005.398742675781	-239.4625244140626	354.8767700195313	-1038.427612304688	-272.6507873535157	305.0657043457032	-1103.022216796875	-239.8863983154297	304.1369323730469	-1067.501220703125	-262.5743713378907	231.6864166259766	-1029.795288085938	-327.1254577636719	117.3304901123047	-1063.254516601563	-303.5756530761719	132.5331268310547	-981.2974853515627	-388.6676330566407	98.771598815918	-1010.151245117188	-181.5986480712891	60.28322982788087	-988.9129638671877	-180.4794464111328	57.83448791503908	-1034.753295898438	-217.7545166015626	41.60931777954102	-1080.875122070313	-304.0149536132813	789.3086547851565	-786.6142578125002	-257.1489257812501	739.3267822265626	-776.5089111328127	-226.4506988525391	742.5841674804689	-784.4197387695315	-277.3109130859376	657.2164916992189	-777.1365356445315	-294.2902221679688	568.5875854492189	-776.691101074219	-292.8614501953126	544.1295776367189	-890.8808593750002	-374.2864685058594	462.0593566894532	-790.201843261719	-473.8326721191407	501.9146423339845	-766.1940307617189	-459.4190063476564	458.6345825195314	-770.812927246094	-496.8972778320314	421.1442871093751	-794.1058349609377	-667.0507202148439	408.4717102050782	-796.515075683594	-636.8982543945314	382.8266296386719	-874.5083007812502	-713.0041503906251	437.1647338867189	-860.1741943359377	-639.4806518554689	238.5985107421876	-840.6109619140627	-646.3881835937501	236.1988830566407	-803.999206542969	-692.3650512695314	267.4313659667969	-766.7276000976564	256.0020446777344	1487.349609375	-1056.306884765625	-247.2453002929688	1563.318725585938	-1209.58935546875	-101.4212875366211	1515.449829101563	-1328.024536132813	-65.0165481567383	1526.606811523438	-1294.405883789063	-31.69979667663575	1507.956298828125	-1344.187133789063	28.97475624084473	1502.83642578125	-1341.438720703125	14.48912143707276	1422.191650390625	-1324.968383789063	269.8804016113282	1498.658569335938	-1189.849853515625	nan	nan	nan	nan	nan	nan	nan	nan	nan	nan	nan	nan	nan	nan	nan	nan	nan	nan	nan	nan	nan	nan	nan	nan	
652	3.255	-128.3566131591797	1778.144287109375	-1078.390502929688	-269.1188354492188	1748.05029296875	-1142.247314453125	-300.2901611328126	1741.6748046875	-978.6418457031252	-337.6806030273438	1561.977905273438	-1058.927124023438	-363.8931884765626	1262.927124023438	-1027.584716796875	-198.6415710449219	1518.457275390625	-1058.3916015625	nan	nan	nan	283.7374572753907	1514.785278320313	-1085.46044921875	-256.0163879394532	1570.046997070313	-898.5647583007815	-112.3069000244141	1530.699096679688	-787.4801025390627	-77.47494506835939	1542.032836914063	-822.3710937500002	-43.34543228149415	1526.40771484375	-776.3445434570315	19.7613697052002	1524.628784179688	-783.5207519531252	11.40810775756836	1440.876953125	-789.7874145507815	257.0996704101563	1505.58349609375	-938.0424804687502	-215.6734466552735	1046.672241210938	-1115.363037109375	-207.9881591796876	1044.589477539063	-896.420593261719	-371.9378662109376	1120.623168945313	-1001.79541015625	-382.9895019531251	1087.397216796875	-1026.015502929688	-377.2598266601563	1093.13134765625	-969.3126220703127	-305.2178955078126	809.3109130859377	-1171.4287109375	-265.3244018554688	733.8805541992189	-1169.67529296875	-216.5783996582032	740.5552368164064	-1167.426513671875	-285.1488342285157	681.2277221679689	-1149.772094726563	-255.0374908447266	526.5454101562501	-1127.311767578125	-240.6542663574219	530.0580444335939	-1005.490478515625	-239.1792755126954	354.9383239746094	-1038.478759765625	-272.4407958984376	304.9403381347657	-1102.999145507813	-239.5901947021485	303.7725524902344	-1067.279907226563	-262.4658813476563	231.5764160156251	-1029.767456054688	-327.0630187988282	117.2926330566407	-1063.222290039063	-303.5660705566407	132.5319366455078	-981.2973632812502	-388.6365051269532	98.69042968750003	-1010.21875	-181.5783843994141	60.25130081176759	-988.8372802734377	-180.4693450927735	57.81146621704103	-1034.696411132813	-217.052719116211	42.30677032470704	-1081.098876953125	-304.6347656250001	789.208435058594	-786.5944824218752	-257.5913696289063	739.3919067382814	-777.1175537109377	-226.8905944824219	742.3236694335939	-784.3912353515627	-277.3505859375001	656.5806884765626	-776.726989746094	-294.6728820800782	568.3766479492189	-776.793151855469	-293.4177246093751	544.0102539062501	-891.0300292968752	-374.5459289550782	461.8441467285157	-790.6103515625002	-474.1754455566407	501.4355468750001	-766.3554687500001	-459.9070129394532	458.3374328613282	-770.8964843750002	-497.3031616210939	420.7392883300782	-794.697937011719	-667.5124511718751	407.9302368164064	-796.4898071289065	-637.2357788085939	382.3882141113282	-874.5311279296877	-713.4265747070314	436.5803833007814	-860.1088867187502	-639.5789184570314	238.4008789062501	-840.7698974609377	-646.6157836914064	235.7227935791016	-804.453796386719	-692.8515014648439	266.9139099121094	-766.7444458007814	256.0806579589844	1486.841674804688	-1056.46044921875	-247.0739898681641	1563.12060546875	-1209.712158203125	-101.1958847045899	1515.190185546875	-1328.097045898438	-64.94072723388673	1526.2060546875	-1294.548583984375	-31.65961265563966	1507.607543945313	-1344.32275390625	29.10310173034669	1502.358276367188	-1341.6015625	14.40782928466797	1421.765258789063	-1324.950073242188	269.9308471679688	1498.142578125	-1189.946533203125	nan	nan	nan	nan	nan	nan	nan	nan	nan	nan	nan	nan	nan	nan	nan	nan	nan	nan	nan	nan	nan	nan	nan	nan	
